<svg xmlns="http://www.w3.org/2000/svg" version="1.1" xmlns:xlink="http://www.w3.org/1999/xlink" xmlns:svgjs="http://svgjs.com/svgjs" viewBox="0 0 640 400" data-background-color="#ffffff" preserveAspectRatio="xMidYMid meet" height="400" width="640"><rect width="640" height="400" x="0" y="0" opacity="1" fill="#ffffff" data-fill-palette-color="background" id="background"></rect><g id="tight-bounds" transform="matrix(1,0,0,1,148.57422074112307,28.57422074112307)"><svg viewBox="0 0 342.85155851775386 342.85155851775386" height="342.85155851775386" width="342.85155851775386"><g><svg xmlns="http://www.w3.org/2000/svg" version="1.1" xmlns:xlink="http://www.w3.org/1999/xlink" xmlns:svgjs="http://svgjs.com/svgjs"></svg></g><g><svg viewBox="0 0 342.85155851775386 342.85155851775386" height="342.85155851775386" width="342.85155851775386"><g><path d="M0 171.426c0-94.676 76.75-171.426 171.426-171.426 94.676 0 171.426 76.75 171.426 171.426 0 94.676-76.75 171.426-171.426 171.426-94.676 0-171.426-76.75-171.426-171.426zM171.426 338.15c92.079 0 166.725-74.645 166.724-166.724 0-92.079-74.645-166.725-166.724-166.725-92.079 0-166.725 74.645-166.725 166.725 0 92.079 74.645 166.725 166.725 166.724z" data-fill-palette-color="tertiary" fill="#4a596d" stroke="transparent"></path><ellipse rx="164.56874808852186" ry="164.56874808852186" cx="171.42577925887693" cy="171.42577925887693" fill="#4a596d" stroke="transparent" stroke-width="0" fill-opacity="1" data-fill-palette-color="tertiary"></ellipse></g><g transform="matrix(1,0,0,1,64.84655864529837,132.3908205363798)"><svg viewBox="0 0 213.1584412271571 78.06991744499427" height="78.06991744499427" width="213.1584412271571"><g><svg viewBox="0 0 213.1584412271571 78.06991744499427" height="78.06991744499427" width="213.1584412271571"><g><svg viewBox="0 0 213.1584412271571 78.06991744499427" height="78.06991744499427" width="213.1584412271571"><g><svg viewBox="0 0 213.1584412271571 78.06991744499427" height="78.06991744499427" width="213.1584412271571"><g><svg viewBox="0 0 213.1584412271571 52.12945913900722" height="52.12945913900722" width="213.1584412271571"><g transform="matrix(1,0,0,1,0,0)"><svg width="213.1584412271571" viewBox="2.45 -33.3 137.79000000000002 33.699999999999996" height="52.12945913900722" data-palette-color="#ffffff"><path d="M2.45-32.5L2.45-33 9.6-33 9.6-32.5 9.35-32.5Q9-32.5 8.7-32.23 8.4-31.95 8.2-31.58 8-31.2 7.88-30.73 7.75-30.25 7.75-29.9L7.75-29.9 7.75-3.25Q7.75-2.85 7.85-2.38 7.95-1.9 8.18-1.5 8.4-1.1 8.68-0.8 8.95-0.5 9.35-0.5L9.35-0.5 9.6-0.5 9.6 0 2.45 0 2.45-0.5 2.7-0.5Q3.1-0.5 3.4-0.78 3.7-1.05 3.93-1.48 4.15-1.9 4.25-2.38 4.35-2.85 4.35-3.25L4.35-3.25 4.35-29.9Q4.35-30.25 4.25-30.7 4.15-31.15 3.93-31.55 3.7-31.95 3.4-32.23 3.1-32.5 2.7-32.5L2.7-32.5 2.45-32.5ZM34.5-12.9L34.5-3.25Q34.5-2.85 34.6-2.38 34.7-1.9 34.92-1.5 35.15-1.1 35.42-0.8 35.7-0.5 36.1-0.5L36.1-0.5 36.1 0 29.65 0 29.65-0.5Q30-0.5 30.3-0.8 30.6-1.1 30.82-1.5 31.05-1.9 31.15-2.38 31.25-2.85 31.25-3.25L31.25-3.25 31.25-12.55Q31.25-14.35 30.75-15.7 30.25-17.05 29.4-17.95 28.55-18.85 27.47-19.28 26.4-19.7 25.3-19.7L25.3-19.7Q24.2-19.7 23.12-19.25 22.05-18.8 21.22-18.07 20.4-17.35 19.87-16.38 19.35-15.4 19.35-14.35L19.35-14.35 19.35-3.25Q19.35-2.85 19.45-2.38 19.55-1.9 19.77-1.5 20-1.1 20.27-0.8 20.55-0.5 20.95-0.5L20.95-0.5 20.95 0 14.45 0 14.45-0.5Q14.8-0.5 15.1-0.8 15.4-1.1 15.62-1.5 15.85-1.9 15.95-2.38 16.05-2.85 16.05-3.25L16.05-3.25 16.05-17.05Q16.05-17.9 15.8-18.68 15.55-19.45 14.35-19.5L14.35-19.5 14.35-19.95 19.35-21.55 19.35-18.8Q19.7-19.2 20.25-19.68 20.8-20.15 21.57-20.58 22.35-21 23.37-21.28 24.4-21.55 25.8-21.55L25.8-21.55Q28.15-21.55 29.8-20.75 31.45-19.95 32.5-18.68 33.55-17.4 34.02-15.88 34.5-14.35 34.5-12.9L34.5-12.9ZM60.5 0L57.65 0Q56.8 0 56.07-0.38 55.35-0.75 54.8-1.2L54.8-1.2Q54.15-1.75 53.6-2.4L53.6-2.4 47.15-10.7 46.1-9.65 46.1-3.15Q46.1-2.8 46.2-2.35 46.3-1.9 46.52-1.48 46.75-1.05 47.05-0.78 47.35-0.5 47.75-0.5L47.75-0.5 47.75 0 41.25 0 41.25-0.5Q41.6-0.5 41.9-0.78 42.2-1.05 42.4-1.45 42.6-1.85 42.7-2.3 42.8-2.75 42.8-3.15L42.8-3.15 42.8-28.6Q42.8-29.3 42.35-30 41.9-30.7 41.15-30.75L41.15-30.75 41.15-31.25 46.1-32.8 46.1-11.95 54.2-19.55Q54.45-19.8 54.45-20.15L54.45-20.15Q54.45-20.5 54.1-20.5L54.1-20.5 54.1-21 58.6-21 58.6-20.5Q58.3-20.5 57.97-20.35 57.65-20.2 57.35-20L57.35-20Q57-19.8 56.65-19.5L56.65-19.5 49.55-12.9 56.95-3.55Q57.6-2.65 58.25-2L58.25-2Q58.8-1.45 59.42-0.98 60.05-0.5 60.5-0.5L60.5-0.5 60.5 0ZM94.64-21L94.64-20.5Q93.74-20.5 93.27-20 92.79-19.5 92.39-18.5L92.39-18.5 84.84 0.4 78.39-15.4 71.99 0.35 64.59-17.95Q64.24-18.8 63.72-19.65 63.19-20.5 62.34-20.5L62.34-20.5 62.34-21 69.19-21 69.19-20.5Q68.84-20.5 68.32-20.18 67.79-19.85 67.79-19.1L67.79-19.1Q67.79-19 67.87-18.68 67.94-18.35 68.04-18.1L68.04-18.1 72.94-6 79.24-21.55 85.59-6 90.54-18.3Q90.79-19.05 90.79-19.35L90.79-19.35Q90.79-19.75 90.54-20.1 90.29-20.45 89.69-20.5L89.69-20.5 89.69-21 94.64-21ZM117.79-10.1L100.44-10.1Q100.64-8.35 101.29-6.78 101.94-5.2 103.02-4 104.09-2.8 105.64-2.08 107.19-1.35 109.24-1.35L109.24-1.35Q110.34-1.35 111.57-1.68 112.79-2 113.84-2.6 114.89-3.2 115.72-4.08 116.54-4.95 116.84-6.05L116.84-6.05 117.29-6.05 117.29-2.3Q116.99-2.3 116.62-2.1 116.24-1.9 115.74-1.6L115.74-1.6Q114.74-1 113.04-0.33 111.34 0.35 108.54 0.35L108.54 0.35Q106.29 0.35 104.27-0.3 102.24-0.95 100.69-2.3 99.14-3.65 98.22-5.75 97.29-7.85 97.29-10.75L97.29-10.75Q97.29-12.6 97.92-14.5 98.54-16.4 99.82-17.93 101.09-19.45 103.09-20.4 105.09-21.35 107.89-21.35L107.89-21.35Q110.39-21.35 112.27-20.5 114.14-19.65 115.37-18.15 116.59-16.65 117.19-14.6 117.79-12.55 117.79-10.1L117.79-10.1ZM107.69-19.7L107.69-19.7Q105.94-19.7 104.67-19 103.39-18.3 102.49-17.2 101.59-16.1 101.09-14.7 100.59-13.3 100.44-11.9L100.44-11.9 114.69-11.9Q114.64-13.35 114.17-14.75 113.69-16.15 112.84-17.25 111.99-18.35 110.69-19.03 109.39-19.7 107.69-19.7ZM128.69 0L122.14 0 122.14-0.5Q122.54-0.5 122.84-0.8 123.14-1.1 123.36-1.5 123.59-1.9 123.69-2.38 123.79-2.85 123.79-3.25L123.79-3.25 123.79-28.85Q123.79-29.7 123.54-30.45 123.29-31.2 122.04-31.25L122.04-31.25 122.04-31.75 127.09-33.3 127.09-3.25Q127.09-2.85 127.19-2.38 127.29-1.9 127.51-1.5 127.74-1.1 128.01-0.8 128.29-0.5 128.69-0.5L128.69-0.5 128.69 0ZM140.24 0L133.69 0 133.69-0.5Q134.09-0.5 134.39-0.8 134.69-1.1 134.91-1.5 135.14-1.9 135.24-2.38 135.34-2.85 135.34-3.25L135.34-3.25 135.34-28.85Q135.34-29.7 135.09-30.45 134.84-31.2 133.59-31.25L133.59-31.25 133.59-31.75 138.64-33.3 138.64-3.25Q138.64-2.85 138.74-2.38 138.84-1.9 139.06-1.5 139.29-1.1 139.56-0.8 139.84-0.5 140.24-0.5L140.24-0.5 140.24 0Z" opacity="1" transform="matrix(1,0,0,1,0,0)" fill="#ffffff" class="undefined-text-0" data-fill-palette-color="quaternary" id="text-0"></path></svg></g></svg></g><g transform="matrix(1,0,0,1,0,64.43597333470748)"><svg viewBox="0 0 213.1584412271571 13.633944110286786" height="13.633944110286786" width="213.1584412271571"><g transform="matrix(1,0,0,1,0,0)"><svg width="213.1584412271571" viewBox="3.5 -34.3 540.9 34.599999999999994" height="13.633944110286786" data-palette-color="#ffffff"><path d="M3.5 0L3.5-33.85Q3.85-33.85 5-33.88 6.15-33.9 7.6-33.9 9.05-33.9 10.6-33.93 12.15-33.95 13.3-33.95L13.3-33.95Q21.8-33.95 25.9-29.73 30-25.5 30-17.15L30-17.15Q30-8.8 25.8-4.35 21.6 0.1 12.65 0.1L12.65 0.1Q11.1 0.1 9.63 0.08 8.15 0.05 6.93 0.05 5.7 0.05 4.8 0.03 3.9 0 3.5 0L3.5 0ZM12.6-29.5Q11.45-29.5 10.68-29.48 9.9-29.45 9.45-29.45L9.45-29.45 9.45-4.4Q10-4.35 10.88-4.35 11.75-4.35 13.4-4.35L13.4-4.35Q18.65-4.35 21.1-7.43 23.55-10.5 23.55-16.6L23.55-16.6Q23.55-19.5 22.98-21.88 22.4-24.25 21.08-25.95 19.75-27.65 17.68-28.58 15.6-29.5 12.6-29.5L12.6-29.5ZM35.15-33.85L41.05-33.85 41.05-12.9Q41.05-8.25 43-6.28 44.95-4.3 48.3-4.3L48.3-4.3Q51.7-4.3 53.32-6.58 54.95-8.85 54.95-12.9L54.95-12.9 54.95-33.85 60.9-33.85 60.9-12.45Q60.9-9.85 60.22-7.55 59.55-5.25 58-3.5 56.45-1.75 53.9-0.73 51.35 0.3 47.65 0.3L47.65 0.3Q44.1 0.3 41.72-0.73 39.35-1.75 37.87-3.5 36.4-5.25 35.77-7.55 35.15-9.85 35.15-12.45L35.15-12.45 35.15-33.85ZM67.4 0L67.4-33.85Q67.75-33.85 69-33.88 70.25-33.9 71.8-33.9 73.34-33.9 74.9-33.93 76.45-33.95 77.45-33.95L77.45-33.95Q83.25-33.95 86.27-31.65 89.3-29.35 89.3-25.15L89.3-25.15Q89.3-22.7 87.95-20.75 86.59-18.8 84.2-17.6L84.2-17.6Q87.2-16.45 88.77-14.35 90.34-12.25 90.34-9.5L90.34-9.5Q90.34-5.2 87.09-2.58 83.84 0.05 77.25 0.05L77.25 0.05Q75.9 0.05 74.34 0.05 72.8 0.05 71.4 0.03 70 0 68.92 0 67.84 0 67.4 0L67.4 0ZM73.34-15.15L73.34-4.25 77.65-4.25Q81.05-4.25 82.52-5.78 84-7.3 84-9.6L84-9.6Q84-10.65 83.67-11.65 83.34-12.65 82.55-13.45 81.75-14.25 80.42-14.73 79.09-15.2 77.09-15.2L77.09-15.2Q75.9-15.2 74.97-15.2 74.05-15.2 73.34-15.15L73.34-15.15ZM73.34-29.65L73.34-19.45 77.2-19.45Q80.34-19.45 81.7-20.9 83.05-22.35 83.05-24.45L83.05-24.45Q83.05-25.4 82.75-26.35 82.45-27.3 81.72-28.05 81-28.8 79.77-29.25 78.55-29.7 76.7-29.7L76.7-29.7Q75.59-29.7 74.77-29.7 73.95-29.7 73.34-29.65L73.34-29.65ZM95.64 0L95.64-33.85 101.59-33.85 101.59-4.5 114.24-4.5 114.24 0 95.64 0ZM117.74 0L117.74-33.85 123.69-33.85 123.69 0 117.74 0ZM150.84-16.15L150.69-33.85 156.64-33.85 156.64 0.05 151.69 0.05 140.29-17.75Q139.34-19.2 138.21-21.03 137.09-22.85 136.09-24.4L136.09-24.4Q136.24-22.8 136.36-21.05 136.49-19.3 136.49-17.7L136.49-17.7 136.64 0 130.69 0 130.69-33.95 135.34-33.95 147.09-16.35Q148.09-14.9 149.11-13.28 150.14-11.65 151.14-10.15L151.14-10.15Q151.04-11.75 150.94-13.38 150.84-15 150.84-16.15L150.84-16.15ZM176.38 0L176.38-33.85 182.33-33.85 182.33-4.5 194.98-4.5 194.98 0 176.38 0ZM198.48 0L198.48-33.85 204.43-33.85 204.43 0 198.48 0ZM208.43-33.85L232.03-33.85 231.28-29.35 222.88-29.35 222.88 0 216.98 0 216.98-29.35 208.43-29.35 208.43-33.85ZM236.08 0L236.08-33.85 256.18-33.85 256.18-29.35 242.03-29.35 242.03-19.9 253.68-19.9 252.93-15.35 242.03-15.35 242.03-4.5 256.93-4.5 256.93 0 236.08 0ZM261.72 0L261.72-33.85Q262.07-33.85 263.32-33.88 264.57-33.9 266.12-33.9 267.67-33.9 269.22-33.93 270.77-33.95 271.77-33.95L271.77-33.95Q277.97-33.95 280.82-31.53 283.67-29.1 283.67-24.7L283.67-24.7Q283.67-21.8 282.22-19.55 280.77-17.3 277.47-16.3L277.47-16.3Q278.87-15.5 279.97-14.1 281.07-12.7 282.12-10.68 283.17-8.65 284.27-5.98 285.37-3.3 286.82 0L286.82 0 280.37 0Q278.67-3.95 277.4-6.75 276.12-9.55 274.92-11.3 273.72-13.05 272.35-13.85 270.97-14.65 269.12-14.65L269.12-14.65 267.67-14.65 267.67 0 261.72 0ZM267.67-29.7L267.67-19 271.52-19Q274.32-19 275.85-20.25 277.37-21.5 277.37-23.95L277.37-23.95Q277.37-25.05 277.07-26.1 276.77-27.15 276.05-27.95 275.32-28.75 274.1-29.23 272.87-29.7 271.02-29.7L271.02-29.7 267.67-29.7ZM287.67 0L300.67-33.85 305.37-33.85 318.42 0 312.07 0 308.97-8.85 296.77-8.85 293.57 0 287.67 0ZM298.37-13.25L307.42-13.25Q305.82-17.75 304.67-21.43 303.52-25.1 302.92-27.2L302.92-27.2Q302.22-24.95 301.07-21.3 299.92-17.65 298.37-13.25L298.37-13.25ZM315.67-33.85L339.27-33.85 338.52-29.35 330.12-29.35 330.12 0 324.22 0 324.22-29.35 315.67-29.35 315.67-33.85ZM342.81-33.85L348.71-33.85 348.71-12.9Q348.71-8.25 350.67-6.28 352.62-4.3 355.96-4.3L355.96-4.3Q359.37-4.3 360.99-6.58 362.62-8.85 362.62-12.9L362.62-12.9 362.62-33.85 368.56-33.85 368.56-12.45Q368.56-9.85 367.89-7.55 367.21-5.25 365.67-3.5 364.12-1.75 361.56-0.73 359.01 0.3 355.31 0.3L355.31 0.3Q351.76 0.3 349.39-0.73 347.01-1.75 345.54-3.5 344.06-5.25 343.44-7.55 342.81-9.85 342.81-12.45L342.81-12.45 342.81-33.85ZM375.06 0L375.06-33.85Q375.41-33.85 376.66-33.88 377.91-33.9 379.46-33.9 381.01-33.9 382.56-33.93 384.11-33.95 385.11-33.95L385.11-33.95Q391.31-33.95 394.16-31.53 397.01-29.1 397.01-24.7L397.01-24.7Q397.01-21.8 395.56-19.55 394.11-17.3 390.81-16.3L390.81-16.3Q392.21-15.5 393.31-14.1 394.41-12.7 395.46-10.68 396.51-8.65 397.61-5.98 398.71-3.3 400.16 0L400.16 0 393.71 0Q392.01-3.95 390.74-6.75 389.46-9.55 388.26-11.3 387.06-13.05 385.69-13.85 384.31-14.65 382.46-14.65L382.46-14.65 381.01-14.65 381.01 0 375.06 0ZM381.01-29.7L381.01-19 384.86-19Q387.66-19 389.19-20.25 390.71-21.5 390.71-23.95L390.71-23.95Q390.71-25.05 390.41-26.1 390.11-27.15 389.39-27.95 388.66-28.75 387.44-29.23 386.21-29.7 384.36-29.7L384.36-29.7 381.01-29.7ZM403.76 0L403.76-33.85 423.86-33.85 423.86-29.35 409.71-29.35 409.71-19.9 421.36-19.9 420.61-15.35 409.71-15.35 409.71-4.5 424.61-4.5 424.61 0 403.76 0ZM463.8-30.7L460.75-27.05Q459.55-28.35 458.23-29.03 456.9-29.7 455.15-29.7L455.15-29.7Q453-29.7 451.53-28.73 450.05-27.75 449.15-26.03 448.25-24.3 447.85-22 447.45-19.7 447.45-17.05L447.45-17.05Q447.45-14.4 447.83-12.1 448.2-9.8 449.13-8.05 450.05-6.3 451.63-5.3 453.2-4.3 455.6-4.3L455.6-4.3Q456.75-4.3 457.8-4.5 458.85-4.7 459.73-4.93 460.6-5.15 461.18-5.35 461.75-5.55 461.9-5.6L461.9-5.6 463.3-1.4 462.65-1.15Q462-0.9 460.83-0.58 459.65-0.25 458.03 0.03 456.4 0.3 454.45 0.3L454.45 0.3Q447.75 0.3 444.38-3.98 441-8.25 441-16.5L441-16.5Q441-20.45 441.9-23.73 442.8-27 444.63-29.35 446.45-31.7 449.23-33 452-34.3 455.75-34.3L455.75-34.3Q458.75-34.3 460.68-33.2 462.6-32.1 463.8-30.7L463.8-30.7ZM468.3 0L468.3-33.85 474.25-33.85 474.25-4.5 486.9-4.5 486.9 0 468.3 0ZM489.2-33.85L495.1-33.85 495.1-12.9Q495.1-8.25 497.05-6.28 499-4.3 502.35-4.3L502.35-4.3Q505.75-4.3 507.38-6.58 509-8.85 509-12.9L509-12.9 509-33.85 514.95-33.85 514.95-12.45Q514.95-9.85 514.27-7.55 513.6-5.25 512.05-3.5 510.5-1.75 507.95-0.73 505.4 0.3 501.7 0.3L501.7 0.3Q498.15 0.3 495.77-0.73 493.4-1.75 491.93-3.5 490.45-5.25 489.82-7.55 489.2-9.85 489.2-12.45L489.2-12.45 489.2-33.85ZM521.45 0L521.45-33.85Q521.8-33.85 523.05-33.88 524.3-33.9 525.85-33.9 527.4-33.9 528.95-33.93 530.5-33.95 531.5-33.95L531.5-33.95Q537.3-33.95 540.32-31.65 543.35-29.35 543.35-25.15L543.35-25.15Q543.35-22.7 542-20.75 540.65-18.8 538.25-17.6L538.25-17.6Q541.25-16.45 542.82-14.35 544.4-12.25 544.4-9.5L544.4-9.5Q544.4-5.2 541.15-2.58 537.9 0.05 531.3 0.05L531.3 0.05Q529.95 0.05 528.4 0.05 526.85 0.05 525.45 0.03 524.05 0 522.97 0 521.9 0 521.45 0L521.45 0ZM527.4-15.15L527.4-4.25 531.7-4.25Q535.1-4.25 536.57-5.78 538.05-7.3 538.05-9.6L538.05-9.6Q538.05-10.65 537.72-11.65 537.4-12.65 536.6-13.45 535.8-14.25 534.47-14.73 533.15-15.2 531.15-15.2L531.15-15.2Q529.95-15.2 529.02-15.2 528.1-15.2 527.4-15.15L527.4-15.15ZM527.4-29.65L527.4-19.45 531.25-19.45Q534.4-19.45 535.75-20.9 537.1-22.35 537.1-24.45L537.1-24.45Q537.1-25.4 536.8-26.35 536.5-27.3 535.77-28.05 535.05-28.8 533.82-29.25 532.6-29.7 530.75-29.7L530.75-29.7Q529.65-29.7 528.82-29.7 528-29.7 527.4-29.65L527.4-29.65Z" opacity="1" transform="matrix(1,0,0,1,0,0)" fill="#ffffff" class="undefined-text-1" data-fill-palette-color="quaternary" id="text-1"></path></svg></g></svg></g></svg></g></svg></g><g></g></svg></g></svg></g></svg></g></svg><rect width="342.85155851775386" height="342.85155851775386" fill="transparent" stroke="transparent"></rect></g><defs></defs></svg>